<svg xmlns="http://www.w3.org/2000/svg" viewBox="0 0 64 64" role="img" aria-label="BTC">
  <circle cx="32" cy="32" r="30" fill="#f7931a"/>
  <g fill="#fff">
    <rect x="22" y="13" width="3" height="38" rx="1.5"/>
    <rect x="39" y="13" width="3" height="38" rx="1.5"/>
  </g>
  <path
    fill="#fff"
    d="M18 19h18.5c7 0 11.5 3.7 11.5 9.4 0 4-2.2 6.8-6 8.2 5 1.2 7.8 4.7 7.8 9.6 0 6.9-5.6 11.4-14.2 11.4H18V19zm16.7 15.2c4.3 0 6.6-1.7 6.6-4.8s-2.2-4.8-6.3-4.8H25.4v9.6h9.3zm1 16.4c4.8 0 7.4-1.8 7.4-5.3s-2.6-5.2-7.4-5.2H25.4v10.5h10.3z"
  />
</svg>
